<svg width="87" height="50" viewBox="0 0 87 50" fill="none" xmlns="http://www.w3.org/2000/svg">
<g clip-path="url(#clip0_84_3)">
<path d="M14.4518 49.9993C14.4037 49.9998 14.3555 50 14.3073 50C6.40561 50 0 43.4818 0 35.4412C0 27.4006 6.40561 20.8824 14.3073 20.8824C15.3457 20.8824 16.3583 20.9949 17.3338 21.2087C19.1291 9.20075 29.3193 0 41.6213 0C50.4893 0 58.26 4.78114 62.5797 11.9484C64.2753 11.4459 66.0685 11.1765 67.9236 11.1765C78.4592 11.1765 87 19.8674 87 30.5882C87 41.3091 78.4592 50 67.9236 50H14.4518V49.9993Z" fill="white"/>
</g>
<defs>
<clipPath id="clip0_84_3">
<rect width="87" height="50" fill="white"/>
</clipPath>
</defs>
</svg>
